<svg xmlns="http://www.w3.org/2000/svg" xmlns:xlink="http://www.w3.org/1999/xlink" viewBox="0 0 187.28 187.6"><defs><style>.cls-1{fill:url(#Sfumatura_senza_nome_10);}.cls-2{fill:#fff;}</style><linearGradient id="Sfumatura_senza_nome_10" y1="93.96" x2="187.28" y2="93.96" gradientUnits="userSpaceOnUse"><stop offset="0" stop-color="#fa2805"/><stop offset="0.8" stop-color="#ce0916"/><stop offset="1" stop-color="#c2001b"/></linearGradient></defs><g id="Livello_2" data-name="Livello 2"><g id="Livello_1-2" data-name="Livello 1"><circle class="cls-1" cx="93.64" cy="93.96" r="93.64"/><g id="group-65svg"><path class="cls-2" d="M96.44,84.1c-38.26,0-70.1,29.09-76.36,67.18,1.9,3.15,4.59,5.51,7.07,8.08C29.92,122,59.92,92.42,96.44,92.42c34.78,0,63.69,26.81,68.74,61.68l6.55-8.28C163.46,110.43,132.84,84.1,96.44,84.1Z"/><path class="cls-2" d="M95.61,0C71.25,0,51.44,20.68,51.44,46.11S71.25,92.23,95.61,92.23s44.17-20.69,44.17-46.12S120,0,95.61,0Zm0,83.9c-20,0-36.2-17-36.2-37.79S75.65,8.32,95.61,8.32s36.19,17,36.19,37.79S115.57,83.9,95.61,83.9Z"/></g></g></g></svg>